<svg xmlns="http://www.w3.org/2000/svg" xmlns:xlink="http://www.w3.org/1999/xlink" viewBox="0 0 841.9 595.3"><defs><style>      .cls-1 {        fill: #2a3f58;      }      .cls-2 {        fill: #fff;      }      .cls-3, .cls-4 {        fill: #bf2332;      }      .cls-4 {        filter: url(#drop-shadow-1);      }    </style><filter id="drop-shadow-1" filterUnits="userSpaceOnUse"><feGaussianBlur stdDeviation="2.8"></feGaussianBlur></filter></defs><g><g id="Calque_1"><g><path class="cls-3" d="M76.3,458.8c20.3,0,34.3,7.5,45.8,19.2l-18.6,17.2c-7.5-6.8-16.8-11-27.2-11-19.5,0-32.1,14.6-32.1,33.1s14.4,33.1,32.7,33.1,28.5-10.6,29.2-21.2h-31.2v-23.2h60.3v10.4c0,32.3-19,59.3-58.8,59.3s-59.3-25.7-59.3-58.4,24.7-58.4,59.3-58.4Z"></path><path class="cls-3" d="M161.7,462.4h72.5v23.7h-45.7v19.7h42.2v23.4h-42.2v19.7h47.7v23h-74.5v-109.6ZM193.3,445.8h22.6l-10.2,14.4h-18.3l5.8-14.4Z"></path><path class="cls-3" d="M258.3,462.4h25l27.9,59.2,28.1-59.2h24.7v109.6h-26.7v-48.8l-23.9,52.4h-4.4l-23.9-52.8v49.1h-26.8v-109.6Z"></path><path class="cls-3" d="M390.7,462.4h72.5v23.7h-45.7v19.7h42.2v23.4h-42.2v19.7h47.7v23h-74.5v-109.6Z"></path><g><polygon class="cls-3" points="546.4 473.4 546.4 560.7 558.9 560.7 564.3 572 593.2 572 546.4 473.4"></polygon><polygon class="cls-3" points="527.7 473.7 481.4 572 510.3 572 515.6 560.7 527.7 560.7 527.7 473.7"></polygon><circle class="cls-3" cx="537.1" cy="538.5" r="5.3"></circle><circle class="cls-3" cx="537.1" cy="517.2" r="5.3"></circle><circle class="cls-3" cx="537.1" cy="496" r="5.3"></circle></g><path class="cls-3" d="M608.5,462.4h26.7v68.7c0,14.6,6.9,19.7,16.3,19.7s16.6-5.1,16.6-19.7v-68.7h26.8v72.7c0,25.9-19.4,40.5-43.5,40.5s-42.9-15.3-42.9-40.5v-72.7Z"></path><path class="cls-3" d="M751.1,515l-35.2-52.6h31.2l20.6,32.7,19.5-32.7h30.9l-34.9,54.6,36.7,55h-30.7l-22.6-34.5-21.7,34.5h-30.7l36.9-57Z"></path></g><g><path class="cls-1" d="M18.4,336h27.7c25.5,0,46.2,20.7,46.2,46.2s-20.7,46.1-46.2,46.1h-27.7v-92.3ZM25.8,420.9h20.3c21.4,0,38.8-17.4,38.8-38.8s-17.4-38.8-38.8-38.8h-20.3v77.5Z"></path><path class="cls-1" d="M110.7,336h49.8v7.4h-42.5v35.1h35.1v7.4h-35.1v35.1h42.5v7.4h-49.8v-92.3ZM129.4,333.5l-3.7-6.4,16-9.4,3.7,6.4-16,9.4Z"></path><path class="cls-1" d="M179,336h40c18.7,0,33.8,15.1,33.8,33.8s-15.1,33.8-33.8,33.8h-32.6v24.6h-7.4v-92.3ZM186.4,396.3h32.6c14.6,0,26.5-11.8,26.5-26.5s-11.8-26.5-26.5-26.5h-32.6v52.9Z"></path><path class="cls-1" d="M309.1,336l40.9,92.3h-8l-9.4-20.9h-59.3l-9.4,20.9h-8l40.9-92.3h12.3ZM276.5,400h52.9l-25.1-56.6h-2.7l-25.1,56.6Z"></path><path class="cls-1" d="M368.5,336h12.3l63.1,80.5v-80.5h7.4v92.3h-7.4l-66.6-84.9h-1.5v84.9h-7.4v-92.3Z"></path><path class="cls-1" d="M469.8,336h12.3l63.1,80.5v-80.5h7.4v92.3h-7.4l-66.6-84.9h-1.5v84.9h-7.4v-92.3Z"></path><path class="cls-1" d="M624.3,336l40.9,92.3h-8l-9.4-20.9h-59.3l-9.4,20.9h-8l40.9-92.3h12.3ZM591.7,400h52.9l-25.1-56.6h-2.7l-25.1,56.6Z"></path><path class="cls-1" d="M742.8,411.7v-20.3h7.4v23.4c-18,18.1-47.3,18.1-65.2,0-18.1-18-18.1-47.3,0-65.2,18-18.1,47.3-18.1,65.2,0l-5.2,5.2c-15.1-15.1-39.8-15.1-54.9,0-15.1,15.1-15.1,39.8,0,54.9,14.4,14.4,37.4,15.1,52.7,2.1Z"></path><path class="cls-1" d="M768.7,336h49.8v7.4h-42.5v35.1h35.1v7.4h-35.1v35.1h42.5v7.4h-49.8v-92.3Z"></path></g><g><path class="cls-4" d="M398,141.3s0,0,0,0c0,21.8-10.5,41.2-26.8,53.6-6.7,5.8-15.6,10.3-26.9,12.6-5.1,1.2-10.5,1.8-16,1.8s-.9,0-1.4,0c-.3,0-.6,0-1,0-37.6,0-67.4-26.3-67.4-68.1s26-68.1,66.2-68.1,1.1,0,1.7,0c.6,0,1.2,0,1.8,0,18.4,0,35.1,7,47.6,18.4,1.7,1.3,3.4,2.7,5,4.2l38.4-35.4c-23.7-24.1-52.7-39.5-94.4-39.5-71.5,0-122.3,53.1-122.3,120.4s50.8,120.4,122.3,120.4,120.4-54.7,121.1-120.5h-48Z"></path><path class="cls-1" d="M508.3,21h-184.1c-66.5,0-120.3,53.9-120.3,120.3s53.9,120.3,120.3,120.3h0c0,.1,146.5.1,146.5.1l77.1,20.2V115.8l-77.7-20.4h94.6v154.6c43.6-19.8,69.5-62.4,69.5-109,0-67.8-55-120-126-120ZM536,184.8c2.2,0,4,1.8,4,4s-1.8,4-4,4-4-1.8-4-4,1.8-4,4-4Z"></path><rect class="cls-3" x="298" y="123.2" width="75.5" height="36.5" rx="18.2" ry="18.2"></rect><path class="cls-2" d="M398,141.3s0,0,0,0c0,21.8-10.5,41.2-26.8,53.6-6.7,5.8-15.6,10.3-26.9,12.6-5.1,1.2-10.5,1.8-16,1.8s-.9,0-1.4,0c-.3,0-.6,0-1,0-37.6,0-67.4-26.3-67.4-68.1s26-68.1,66.2-68.1,1.1,0,1.7,0c.6,0,1.2,0,1.8,0,18.4,0,35.1,7,47.6,18.4,1.7,1.3,3.4,2.7,5,4.2l38.4-35.4c-23.7-24.1-52.7-39.5-94.4-39.5-71.5,0-122.3,53.1-122.3,120.4s50.8,120.4,122.3,120.4,120.4-54.7,121.1-120.5h-48Z"></path></g></g></g></svg>